<?xml version="1.0" standalone="no"?>
<!DOCTYPE svg PUBLIC "-//W3C//DTD SVG 20010904//EN"
 "http://www.w3.org/TR/2001/REC-SVG-20010904/DTD/svg10.dtd">
<svg version="1.0" xmlns="http://www.w3.org/2000/svg"
 width="512.000000pt" height="512.000000pt" viewBox="0 0 512.000000 512.000000"
 preserveAspectRatio="xMidYMid meet">

<g transform="translate(0.000000,512.000000) scale(0.100000,-0.100000)"
fill="#000000" stroke="none">
<path d="M2011 5098 c0 -13 4 -75 9 -138 18 -237 -19 -470 -112 -706 -48 -123
-181 -393 -353 -719 -160 -302 -483 -948 -535 -1070 -304 -716 -215 -1388 270
-2025 75 -99 268 -299 359 -374 72 -59 87 -67 76 -38 -16 42 -77 296 -94 397
-39 218 -46 299 -45 530 0 250 17 389 70 585 55 203 162 431 282 600 103 145
286 329 402 403 l25 16 -4 -152 c-9 -390 74 -787 246 -1177 62 -141 136 -283
200 -382 l42 -67 39 13 c88 31 295 152 470 273 51 36 96 63 98 60 8 -8 -14
-215 -37 -357 -21 -129 -86 -435 -138 -643 -15 -65 -25 -117 -20 -115 22 8
200 183 292 286 275 312 466 625 588 969 52 145 97 329 109 435 5 57 12 122
15 145 2 23 0 116 -6 205 -26 416 -172 852 -423 1268 l-51 85 -7 -195 c-7
-227 -25 -359 -74 -560 -73 -297 -185 -549 -357 -805 -62 -92 -155 -215 -163
-215 -2 0 5 18 16 39 118 232 170 656 150 1211 -11 300 -22 418 -51 574 -105
562 -447 1080 -967 1464 -63 47 -244 161 -314 199 -5 2 -8 -6 -7 -19z"/>
</g>
</svg>
