<svg width="1651" height="780" viewBox="0 0 1651 780" fill="none" xmlns="http://www.w3.org/2000/svg">
<path d="M1389.73 1.33755C1383.6 3.20422 1377.47 7.60422 1372.67 13.6042C1364.53 23.6042 1322 66.4042 1304.67 81.8709C1261.87 120.138 1224 148.004 1176 176.671C1088.13 229.071 991.067 264.538 890.667 281.204C876.667 283.471 869.067 284.538 846.933 287.471C826.933 290.004 786.4 292.004 755.333 292.004C697.867 292.004 645.333 286.938 594 276.538C578 273.338 550.133 266.804 540 263.871C482.667 247.604 441.867 232.271 394.667 209.338C378.533 201.471 373.6 199.738 358.8 196.671C333.067 191.471 307.733 188.938 290 189.738C265.6 190.804 249.867 196.538 237.733 208.671C229.6 216.671 223.067 229.871 222.4 239.204L221.867 246.004L229.6 251.204C280.4 285.604 305.333 300.538 346 320.804C391.2 343.204 446.267 364.671 488 376.138C490.933 376.938 494.8 378.138 496.667 378.804C512.4 384.004 568.933 396.004 597.333 400.138C648.267 407.471 666.133 408.538 725.333 408.671C782.133 408.671 803.467 407.338 846 401.204C882.133 395.871 934.933 384.938 954 378.671C955.867 378.138 959.733 376.938 962.667 376.138C1004.53 364.671 1061.07 342.538 1106 320.004C1126 310.004 1136.27 304.404 1160.13 290.671C1178.13 280.271 1216.13 254.804 1237.33 238.938C1296.53 194.538 1354.53 137.071 1400.13 78.0042C1425.87 44.5375 1427.73 41.3375 1427.73 30.0042C1427.73 9.60421 1408.93 -4.52911 1389.73 1.33755Z" fill="#FBFBFB"/>
<path d="M1286 234.938C1255.33 260.938 1206.27 295.338 1166.67 318.538C1143.47 332.138 1097.07 355.338 1071.07 366.538C962.8 412.538 841.333 437.338 724.133 437.338C703.2 437.338 649.333 434.271 630.667 432.138C625.6 431.604 621.2 431.204 620.933 431.338C620.133 432.004 644.533 439.204 664 444.004C723.2 458.938 768.533 464.538 830.667 464.538C870.8 464.538 886.8 463.471 923.333 458.538C1061.87 439.738 1196.8 373.871 1296.67 276.138C1311.2 261.871 1314.13 258.404 1315.33 253.471C1318.53 241.071 1312.13 228.138 1301.33 224.938C1299.33 224.404 1295.47 226.938 1286 234.938Z" fill="#ACACAC"/>
<path d="M101.333 567.338C55.8667 573.204 26.5333 588.804 11.2 615.338C9.06667 618.938 5.6 627.071 3.6 633.338C0.266667 644.004 0 646.138 0 670.004C0 692.271 0.4 696.538 3.06667 705.738C16.5333 752.404 51.0667 774.004 119.333 778.671C154.533 780.938 192.8 777.871 218.667 770.404C245.6 762.671 267.2 744.671 275.867 722.671C282.8 705.071 285.867 678.671 283.467 657.471C281.333 638.404 279.867 633.204 273.6 620.004C269.467 611.071 266.133 606.538 258.133 598.538C240.8 581.204 217.067 571.871 179.2 567.471C157.867 564.938 120.267 564.938 101.333 567.338ZM162.133 622.004C191.733 628.271 207.467 645.604 207.6 672.004C207.733 706.804 185.6 724.271 141.333 724.404C99.3333 724.671 75.3333 705.604 75.3333 672.138C75.3333 646.004 90.4 627.871 116.933 622.138C128.4 619.604 150.4 619.604 162.133 622.004Z" fill="#FBFBFB"/>
<path d="M862.4 567.338C800.533 575.604 768.533 601.604 761.867 649.071C759.467 665.471 761.2 692.938 765.333 707.338C770.533 724.938 775.6 733.738 788 746.004C799.867 757.871 808.667 763.204 826.8 769.204C872.133 784.404 957.6 782.271 995.333 764.938C1027.73 750.004 1043.2 724.271 1045.47 681.338C1046.8 657.204 1043.2 636.004 1035.07 619.338C1021.2 591.204 995.467 575.738 951.067 568.671C932.133 565.604 880.667 564.804 862.4 567.338ZM923.6 622.004C956.133 628.804 974 652.138 968.933 681.471C964 710.404 942.4 724.404 902.667 724.538C879.6 724.538 864.4 720.004 852.267 709.338C837.867 696.671 833.067 673.738 840.133 652.004C843.067 643.071 854.133 631.338 863.733 626.938C878.133 620.271 904.533 618.138 923.6 622.004Z" fill="#FBFBFB"/>
<path d="M658.533 568.004C600.667 573.604 567.333 594.804 554.933 633.338C549.733 649.471 547.867 671.871 549.867 691.338C552.533 716.671 558.667 732.271 571.333 745.738C587.733 763.204 611.2 772.671 650.667 777.471C670 779.738 716.533 779.471 736.133 776.804C752.533 774.671 773.867 769.738 781.867 766.271L786.267 764.404L782.133 761.471C771.733 754.004 754.933 727.338 752 713.604C751.467 711.338 750.667 709.338 750 709.338C749.467 709.338 745.733 710.804 741.6 712.671C732 716.804 715.6 719.871 698 720.538C644.8 722.671 618.8 705.338 620.933 669.471C622.267 646.404 634.667 634.004 661.867 628.538C670.533 626.804 677.733 626.538 694.533 627.071C720.4 627.871 728.267 629.738 747.6 639.738C748.133 640.004 748.933 638.538 749.467 636.404C753.6 617.871 764.267 598.804 777.2 586.938L783.067 581.604L777.467 579.471C767.867 575.871 752.4 572.138 738.667 570.004C722.667 567.471 675.467 566.404 658.533 568.004Z" fill="#FBFBFB"/>
<path d="M298 673.204V778.671H332.667H367.333V757.471V736.271L416.4 735.604C470.667 735.071 474.267 734.538 494 724.938C510.8 716.671 525.867 698.671 532.133 679.204C535.2 669.338 536.133 639.071 533.6 627.338C527.333 598.004 509.2 580.404 476.133 571.738C465.733 568.938 461.867 568.804 381.733 568.404L298 567.871V673.204ZM459.6 632.938C467.467 636.538 470.4 641.071 470.933 650.538C471.6 661.338 467.733 667.604 458 671.604C450.933 674.404 448.933 674.538 409.067 674.671H367.333V651.871V629.071L410.4 629.604C451.067 630.004 453.733 630.138 459.6 632.938Z" fill="#FBFBFB"/>
<path d="M1059.33 673.338V778.671H1094H1128.67V733.204C1128.67 706.538 1129.2 688.138 1129.87 688.538C1130.53 688.938 1135.87 697.871 1141.73 708.271C1147.47 718.804 1158.67 738.938 1166.67 752.938L1180.93 778.671H1209.33C1230.4 778.671 1238 778.271 1239.07 776.938C1240.27 775.471 1247.2 763.604 1278.53 709.471L1292 686.138L1292.4 732.404L1292.67 778.671H1327.33H1362V673.338V568.004L1320.53 568.271L1278.93 568.671L1269.2 585.338C1263.87 594.538 1254.93 609.738 1249.33 619.338C1220.53 668.671 1211.87 683.204 1210.67 683.604C1210 683.738 1208.67 682.671 1207.87 680.938C1207.07 679.338 1194.8 658.138 1180.67 634.004C1166.53 609.738 1152.53 585.738 1149.6 580.671C1146.67 575.471 1143.33 570.538 1142.27 569.604C1140.67 568.404 1130.13 568.004 1099.73 568.004H1059.33V673.338Z" fill="#FBFBFB"/>
<path d="M1453.33 570.671C1425.2 573.204 1406.8 578.804 1396.13 588.138C1388.53 594.804 1382.4 607.071 1380.4 619.338C1378.67 631.204 1379.73 652.138 1382.67 660.271C1385.33 667.871 1394.8 678.804 1402.53 683.338C1418.53 692.671 1446.93 697.738 1510 702.671C1543.6 705.204 1561.2 706.804 1564.27 707.471C1571.07 708.804 1571.07 717.338 1564.27 720.271C1558.67 722.538 1479.87 722.671 1468 720.271C1459.47 718.538 1454 714.271 1454 709.204C1454 706.804 1452.8 706.671 1417.87 706.671H1381.6L1382.53 720.004C1385.33 761.338 1401.87 773.471 1460.27 777.204C1501.47 779.871 1572.4 778.138 1596.93 773.871C1634.27 767.471 1647.07 756.004 1649.87 726.271C1652.53 699.471 1647.6 680.404 1635.73 671.338C1620.27 659.471 1600.53 656.138 1502 648.004C1454.8 644.138 1449.07 642.671 1452.4 635.471C1455.33 629.071 1458 628.671 1504.67 628.671C1550.4 628.671 1558.4 629.471 1565.33 634.938C1567.47 636.671 1568.67 638.804 1568.67 641.471V645.338H1606H1643.33V638.804C1643.33 629.871 1640 613.338 1636.8 606.004C1628.67 587.604 1608.53 576.938 1572 572.004C1558.4 570.138 1470.93 569.204 1453.33 570.671Z" fill="#FBFBFB"/>
</svg>
