<svg width="286" height="351" viewBox="0 0 286 351" fill="none" xmlns="http://www.w3.org/2000/svg">
<path d="M101.948 2.92759C56.2057 12.5568 26.6944 38.1619 11.268 81.7123C9.12169 87.6211 5.63399 100.971 3.62185 111.257C0.268285 128.764 0 132.266 0 171.439C0 207.987 0.402428 214.99 3.08528 230.09C16.6337 306.686 51.3766 342.139 120.058 349.799C155.471 353.519 193.97 348.486 219.994 336.231C247.091 323.537 268.822 293.993 277.541 257.884C284.516 228.996 287.602 185.664 285.187 150.868C283.041 119.573 281.565 111.038 275.261 89.3719C271.102 74.7092 267.749 67.2684 259.7 54.1376C242.261 25.6876 218.384 10.3684 180.288 3.14644C158.825 -1.01164 120.997 -1.01164 101.948 2.92759ZM163.117 92.6546C192.897 102.94 208.726 131.39 208.86 174.722C208.994 231.841 186.726 260.51 142.191 260.729C99.9362 261.166 75.7905 229.871 75.7905 174.941C75.7905 132.047 90.9486 102.284 117.643 92.8734C129.179 88.7153 151.313 88.7153 163.117 92.6546Z" fill="#1870B8"/>
</svg>
