<svg width="2815" height="1306" viewBox="0 0 2815 1306" fill="none" xmlns="http://www.w3.org/2000/svg">
<path d="M2370.15 2.24031C2359.69 5.36675 2349.23 12.7362 2341.04 22.7854C2327.17 39.5342 2254.63 111.219 2225.07 137.124C2152.07 201.215 2087.49 247.889 2005.63 295.902C1855.78 383.665 1690.23 443.068 1519 470.982C1495.13 474.778 1482.17 476.565 1444.42 481.478C1410.31 485.721 1341.18 489.071 1288.2 489.071C1190.19 489.071 1100.6 480.585 1013.05 463.166C985.76 457.806 938.234 446.864 920.952 441.951C823.172 414.706 753.589 389.025 673.091 350.614C645.576 337.439 637.162 334.536 611.921 329.399C568.034 320.69 524.829 316.447 494.585 317.787C452.972 319.573 426.139 329.176 405.446 349.498C391.575 362.897 380.432 385.005 379.295 400.637L378.386 412.026L391.575 420.736C478.213 478.352 520.736 503.363 590.091 537.307C667.179 574.824 761.093 610.778 832.268 629.984C837.271 631.324 843.865 633.333 847.049 634.45C873.881 643.159 970.297 663.258 1018.73 670.181C1105.6 682.463 1136.07 684.25 1237.03 684.473C1333.9 684.473 1370.29 682.24 1442.83 671.967C1504.45 663.034 1594.5 644.723 1627.02 634.227C1630.2 633.333 1636.79 631.324 1641.8 629.984C1713.2 610.778 1809.62 573.708 1886.25 535.967C1920.36 519.219 1937.87 509.839 1978.57 486.838C2009.27 469.419 2074.08 426.765 2110.23 400.191C2211.2 325.826 2310.11 229.577 2387.88 130.647C2431.77 74.5949 2434.95 69.2353 2434.95 50.2534C2434.95 16.0859 2402.89 -7.58562 2370.15 2.24031Z" fill="#1870B8"/>
<path d="M2193.23 393.492C2140.93 437.038 2057.25 494.654 1989.71 533.511C1950.15 556.289 1871.01 595.147 1826.67 613.905C1642.03 690.949 1434.87 732.486 1234.99 732.486C1199.29 732.486 1107.42 727.35 1075.58 723.777C1066.94 722.884 1059.44 722.214 1058.98 722.437C1057.62 723.554 1099.23 735.613 1132.43 743.652C1233.4 768.664 1310.71 778.043 1416.68 778.043C1485.12 778.043 1512.41 776.256 1574.72 767.994C1810.98 736.506 2041.11 626.188 2211.42 462.496C2236.21 438.602 2241.21 432.795 2243.26 424.533C2248.72 403.764 2237.8 382.102 2219.38 376.743C2215.97 375.85 2209.38 380.093 2193.23 393.492Z" fill="#243E5F"/>
<path d="M172.821 950.22C95.2789 960.046 45.2518 986.174 19.1013 1030.61C15.4629 1036.64 9.55063 1050.27 6.13969 1060.76C0.454792 1078.63 0 1082.2 0 1122.17C0 1159.47 0.682188 1166.61 5.2301 1182.02C28.1971 1260.18 87.0926 1296.36 203.519 1304.18C263.552 1307.97 328.814 1302.84 372.929 1290.33C418.863 1277.38 455.701 1247.23 470.482 1210.38C482.307 1180.91 487.537 1136.69 483.444 1101.18C479.805 1069.25 477.304 1060.54 466.616 1038.43C459.567 1023.47 453.882 1015.87 440.238 1002.48C410.677 973.445 370.2 957.813 305.62 950.443C269.237 946.2 205.111 946.2 172.821 950.22ZM276.513 1041.78C326.995 1052.28 353.828 1081.31 354.055 1125.52C354.283 1183.81 316.535 1213.06 241.04 1213.29C169.41 1213.73 128.479 1181.8 128.479 1125.75C128.479 1081.98 154.174 1051.61 199.426 1042C218.982 1037.76 256.503 1037.76 276.513 1041.78Z" fill="#1870B8"/>
<path d="M1470.8 950.22C1365.28 964.065 1310.71 1007.61 1299.34 1087.11C1295.25 1114.58 1298.2 1160.58 1305.25 1184.7C1314.12 1214.18 1322.76 1228.92 1343.91 1249.46C1364.15 1269.34 1379.15 1278.27 1410.08 1288.32C1487.4 1313.78 1633.16 1310.21 1697.51 1281.18C1752.77 1256.16 1779.14 1213.06 1783.01 1141.16C1785.28 1100.74 1779.14 1065.23 1765.27 1037.31C1741.62 990.193 1697.74 964.289 1622.01 952.453C1589.72 947.317 1501.95 945.977 1470.8 950.22ZM1575.17 1041.78C1630.65 1053.17 1661.13 1092.25 1652.48 1141.38C1644.07 1189.84 1607.23 1213.29 1539.47 1213.51C1500.13 1213.51 1474.21 1205.92 1453.51 1188.05C1428.95 1166.84 1420.77 1128.43 1432.82 1092.03C1437.82 1077.06 1456.7 1057.41 1473.07 1050.04C1497.63 1038.88 1542.65 1035.3 1575.17 1041.78Z" fill="#1870B8"/>
<path d="M1123.11 951.337C1024.42 960.716 967.569 996.223 946.421 1060.76C937.552 1087.78 934.369 1125.3 937.78 1157.9C942.328 1200.33 952.788 1226.46 974.391 1249.02C1002.36 1278.27 1042.38 1294.13 1109.69 1302.17C1142.66 1305.96 1222.02 1305.52 1255.45 1301.05C1283.42 1297.48 1319.8 1289.21 1333.45 1283.41L1340.95 1280.28L1333.9 1275.37C1316.17 1262.86 1287.51 1218.2 1282.51 1195.2C1281.6 1191.4 1280.24 1188.05 1279.1 1188.05C1278.19 1188.05 1271.82 1190.51 1264.78 1193.64C1248.4 1200.56 1220.43 1205.69 1190.42 1206.81C1099.69 1210.38 1055.34 1181.35 1058.98 1121.28C1061.26 1082.65 1082.4 1061.88 1128.79 1052.72C1143.57 1049.82 1155.85 1049.37 1184.5 1050.27C1228.62 1051.61 1242.04 1054.73 1275.01 1071.48C1275.92 1071.93 1277.28 1069.47 1278.19 1065.9C1285.24 1034.86 1303.43 1002.92 1325.49 983.047L1335.5 974.115L1325.94 970.542C1309.57 964.512 1283.19 958.259 1259.77 954.686C1232.48 950.443 1151.99 948.657 1123.11 951.337Z" fill="#1870B8"/>
<path d="M508.229 1127.53V1304.18H567.352H626.475V1268.67V1233.16L710.157 1232.05C802.707 1231.15 808.847 1230.26 842.501 1214.18C871.153 1200.33 896.849 1170.19 907.537 1137.58C912.767 1121.06 914.359 1070.36 910.038 1050.71C899.35 1001.58 868.425 972.105 812.03 957.589C794.293 952.9 787.699 952.676 651.034 952.006L508.229 951.113V1127.53ZM783.833 1060.09C797.25 1066.12 802.252 1073.71 803.162 1089.57C804.299 1107.66 797.704 1118.15 781.105 1124.85C769.053 1129.54 765.642 1129.77 697.65 1129.99H626.475V1091.8V1053.62L699.924 1054.51C769.28 1055.18 773.828 1055.4 783.833 1060.09Z" fill="#1870B8"/>
<path d="M1806.66 1127.76V1304.18H1865.78H1924.91V1228.03C1924.91 1183.36 1925.82 1152.54 1926.95 1153.21C1928.09 1153.88 1937.19 1168.85 1947.19 1186.27C1956.97 1203.91 1976.07 1237.63 1989.71 1261.08L2014.05 1304.18H2062.48C2098.41 1304.18 2111.37 1303.51 2113.19 1301.27C2115.24 1298.82 2127.06 1278.94 2180.5 1188.28L2203.47 1149.2L2204.15 1226.69L2204.6 1304.18H2263.73H2322.85V1127.76V951.336L2252.13 951.783L2181.18 952.453L2164.58 980.368C2155.49 995.776 2140.25 1021.23 2130.7 1037.31C2081.58 1119.94 2066.8 1144.28 2064.75 1144.95C2063.62 1145.18 2061.34 1143.39 2059.98 1140.49C2058.61 1137.81 2037.69 1102.3 2013.59 1061.88C1989.49 1021.23 1965.61 981.038 1960.61 972.552C1955.6 963.842 1949.92 955.579 1948.1 954.016C1945.37 952.006 1927.41 951.336 1875.56 951.336H1806.66V1127.76Z" fill="#1870B8"/>
<path d="M2478.62 955.803C2430.64 960.046 2399.25 969.425 2381.06 985.057C2368.1 996.223 2357.64 1016.77 2354.23 1037.31C2351.27 1057.19 2353.09 1092.25 2358.1 1105.87C2362.64 1118.6 2378.79 1136.91 2391.98 1144.51C2419.27 1160.14 2467.7 1168.62 2575.26 1176.89C2632.56 1181.13 2662.58 1183.81 2667.81 1184.93C2679.41 1187.16 2679.41 1201.45 2667.81 1206.36C2658.26 1210.16 2523.87 1210.38 2503.63 1206.36C2489.08 1203.46 2479.75 1196.31 2479.75 1187.83C2479.75 1183.81 2477.71 1183.59 2418.13 1183.59H2356.28L2357.87 1205.92C2362.64 1275.15 2390.84 1295.47 2490.44 1301.72C2560.71 1306.19 2681.68 1303.28 2723.52 1296.14C2787.19 1285.42 2809.02 1266.21 2813.8 1216.41C2818.35 1171.53 2809.93 1139.59 2789.69 1124.41C2763.32 1104.53 2729.66 1098.95 2561.62 1085.33C2481.12 1078.85 2471.34 1076.39 2477.02 1064.33C2482.03 1053.62 2486.57 1052.95 2566.16 1052.95C2644.16 1052.95 2657.8 1054.29 2669.63 1063.44C2673.27 1066.34 2675.31 1069.92 2675.31 1074.38V1080.86H2738.98H2802.66V1069.92C2802.66 1054.96 2796.97 1027.26 2791.51 1014.98C2777.64 984.164 2743.3 966.299 2681 958.036C2657.8 954.91 2508.63 953.346 2478.62 955.803Z" fill="#1870B8"/>
</svg>
