<?xml version="1.0" standalone="no"?>
<!DOCTYPE svg PUBLIC "-//W3C//DTD SVG 20010904//EN"
 "http://www.w3.org/TR/2001/REC-SVG-20010904/DTD/svg10.dtd">
<svg version="1.0" xmlns="http://www.w3.org/2000/svg"
 width="512.000000pt" height="512.000000pt" viewBox="0 0 512.000000 512.000000"
 preserveAspectRatio="xMidYMid meet">

<g transform="translate(0.000000,512.000000) scale(0.100000,-0.100000)"
fill="#000000" stroke="none">
<path d="M2370 4504 c-19 -2 -80 -9 -135 -15 -382 -41 -798 -191 -1117 -403
-652 -432 -1027 -1096 -1108 -1961 -5 -60 -10 -359 -10 -662 l0 -553 1018 0
1017 0 45 -61 c133 -182 380 -274 606 -224 145 32 270 110 352 222 l47 63
1018 0 1017 0 0 558 c0 682 -13 835 -95 1157 -115 448 -338 848 -645 1155
-376 376 -864 616 -1425 701 -124 19 -497 34 -585 23z m40 -433 l0 -148 -74
-6 c-313 -27 -736 -201 -986 -407 -25 -20 -51 -40 -59 -45 -9 -5 -43 22 -112
91 -54 54 -99 102 -99 106 0 13 149 127 255 196 314 205 645 317 1063 361 9 1
12 -35 12 -148z m500 123 c364 -56 714 -205 1016 -435 50 -38 97 -76 104 -85
12 -13 0 -29 -86 -115 -54 -54 -102 -99 -105 -99 -4 0 -31 20 -61 44 -262 214
-671 384 -990 412 l-78 7 0 148 0 148 53 -5 c28 -3 95 -12 147 -20z m-4 -608
c671 -140 1146 -626 1273 -1301 24 -125 41 -296 41 -402 l0 -73 300 0 300 0 0
-300 0 -300 -830 0 -830 0 0 38 c0 52 -25 149 -53 213 -59 132 -190 256 -324
307 l-73 27 0 613 0 612 -150 0 -150 0 0 -612 0 -613 -73 -27 c-134 -51 -265
-175 -324 -307 -28 -64 -53 -161 -53 -213 l0 -38 -830 0 -830 0 0 300 0 300
300 0 300 0 0 73 c0 115 19 292 45 422 147 729 687 1219 1445 1309 19 2 116 3
215 1 143 -3 205 -9 301 -29z m-1844 -350 c-3 -6 -27 -38 -52 -71 -209 -269
-339 -580 -389 -928 l-17 -122 -147 -3 -147 -3 0 37 c0 52 28 234 51 334 72
310 246 664 445 904 l56 68 104 -103 c56 -56 100 -107 96 -113z m3299 88 c184
-245 315 -519 389 -814 30 -120 60 -301 60 -364 l0 -37 -147 3 -147 3 -17 122
c-51 355 -183 666 -403 948 l-47 59 103 103 c119 119 100 122 209 -23z m-1666
-1847 c108 -55 160 -143 160 -272 0 -70 -4 -87 -30 -134 -37 -66 -92 -115
-162 -141 -140 -52 -294 7 -368 141 -27 48 -30 63 -30 139 1 69 5 94 24 130
40 78 105 133 191 161 49 16 162 4 215 -24z"/>
</g>
</svg>
